<?xml version="1.0" standalone="no"?><!DOCTYPE svg PUBLIC "-//W3C//DTD SVG 1.1//EN" "http://www.w3.org/Graphics/SVG/1.1/DTD/svg11.dtd"><svg t="1498718681428" class="icon" style="" viewBox="0 0 1024 1024" version="1.1" xmlns="http://www.w3.org/2000/svg" p-id="8238" xmlns:xlink="http://www.w3.org/1999/xlink" width="16" height="16"><defs><style type="text/css"></style></defs><path d="M545.28 0c10.24 0 17.92 2.56 28.16 2.56 64 7.68 122.88 25.6 179.2 58.88 107.52 64 179.2 156.16 212.48 279.04 10.24 35.84 15.36 74.24 15.36 112.64v115.2c0 17.92-5.12 35.84-12.8 53.76-2.56 7.68-5.12 12.8-7.68 20.48-46.08 161.28-181.76 281.6-345.6 314.88-10.24 2.56-23.04 5.12-33.28 5.12-5.12 0-5.12 2.56-5.12 5.12-12.8 35.84-46.08 56.32-84.48 53.76-35.84-2.56-69.12-28.16-76.8-64-10.24-43.52 12.8-87.04 53.76-102.4 40.96-15.36 87.04 2.56 107.52 43.52 2.56 5.12 5.12 5.12 7.68 5.12 138.24-23.04 238.08-97.28 302.08-220.16 0 0 0-2.56 2.56-5.12h-12.8c-66.56 2.56-120.32-48.64-120.32-112.64v-112.64c0-66.56 53.76-117.76 120.32-112.64 10.24 0 20.48 5.12 33.28 7.68h2.56C872.96 207.36 734.72 61.44 535.04 56.32 330.24 51.2 181.76 197.12 140.8 348.16c7.68-2.56 15.36-5.12 23.04-5.12 58.88-10.24 120.32 30.72 130.56 92.16 0 7.68 2.56 15.36 2.56 23.04v110.08c0 53.76-38.4 99.84-89.6 112.64-61.44 12.8-125.44-28.16-135.68-92.16 0-5.12-2.56-12.8-2.56-20.48v-120.32c5.12-143.36 64-263.68 179.2-353.28C307.2 48.64 373.76 20.48 445.44 7.68c17.92-2.56 35.84-5.12 53.76-5.12h5.12c12.8-2.56 28.16-2.56 40.96-2.56zM240.64 512v-56.32c0-33.28-25.6-58.88-56.32-58.88-30.72 0-56.32 25.6-56.32 58.88v112.64c0 5.12 0 7.68 2.56 12.8 7.68 28.16 33.28 48.64 61.44 43.52 30.72-2.56 51.2-28.16 51.2-56.32-2.56-17.92-2.56-35.84-2.56-56.32z m568.32 0v56.32c0 5.12 0 10.24 2.56 12.8 7.68 28.16 33.28 48.64 61.44 43.52 30.72-2.56 51.2-28.16 51.2-56.32v-112.64c0-5.12 0-7.68-2.56-12.8-7.68-28.16-33.28-46.08-61.44-43.52-30.72 2.56-51.2 28.16-51.2 56.32V512z" p-id="8239" fill="#1296db"></path></svg>