<?xml version="1.0" standalone="no"?><!DOCTYPE svg PUBLIC "-//W3C//DTD SVG 1.1//EN" "http://www.w3.org/Graphics/SVG/1.1/DTD/svg11.dtd"><svg t="1498645663554" class="icon" style="" viewBox="0 0 1024 1024" version="1.1" xmlns="http://www.w3.org/2000/svg" p-id="12840" xmlns:xlink="http://www.w3.org/1999/xlink" width="16" height="16"><defs><style type="text/css"></style></defs><path d="M932.587034 464.634226c-16.532535-26.872021-39.290865-44.611034-64.314795-50.704822-5.27719-13.542434-15.480576-24.639167-28.3947-31.084973-2.663666-83.638909-36.473703-161.883971-95.922676-221.332944-61.980633-61.980633-144.387481-96.114035-232.040821-96.114034-87.653339 0-170.059164 34.133402-232.039797 96.114034-58.9496 58.9496-92.684936 136.381134-95.844905 219.225957-15.154141 5.932106-27.243481 18.026562-33.154097 33.19196-25.02393 6.094812-47.78226 23.832801-64.314795 50.704822-17.2335 28.011984-26.724665 63.889099-26.724665 101.021811 0 37.133735 9.491165 73.010851 26.724665 101.022835 16.532535 26.872021 39.290865 44.611034 64.314795 50.704822 8.471952 21.738094 29.632901 37.182854 54.332442 37.182854 32.136931 0 58.283428-26.145473 58.283428-58.283428V435.028954c0-25.189705-16.064884-46.693462-38.485523-54.815443 3.25616-71.711252 32.719192-138.665153 83.812871-189.757808 54.248531-54.249555 126.376269-84.124979 203.095581-84.124979 76.720336 0 148.848073 29.876448 203.097628 84.124979 50.747801 50.748824 80.162738 117.145024 83.748403 188.308807-24.797779 6.697539-43.10268 29.379121-43.102681 56.265468v261.255189c0 24.726148 15.484669 45.89119 37.260626 54.344722v28.124547c0 57.94369-47.139623 105.083314-105.083314 105.083314H638.567627c-5.588275-29.502941-31.547507-51.889811-62.651922-51.889811h-85.814458c-35.168987 0-63.780629 28.611641-63.780628 63.779606 0 35.168987 28.611641 63.780629 63.780628 63.780628h85.814458c24.711821 0 46.170552-14.135952 56.755632-34.738175h55.162344c80.513732 0 146.015561-65.502853 146.015561-146.015562v-27.691689c15.748682-5.741771 28.347628-18.092054 34.421974-33.67803 25.02393-6.094812 47.78226-23.832801 64.314795-50.704822 17.2335-28.011984 26.724665-63.889099 26.724664-101.022834 0.001023-37.133735-9.490142-73.010851-26.723641-101.022835zM222.557842 696.285167c0 9.570983-7.779174 17.35118-17.35118 17.35118-9.562796 0-17.35118-7.780197-17.35118-17.35118 0-9.650801-7.823176-17.482163-17.482163-17.482163-37.727253 0-69.605288-51.80897-69.605288-113.145943 0-61.33595 31.879058-113.14492 69.605288-113.14492 9.658987 0 17.482163-7.832386 17.482163-17.482163 0-9.570983 7.788383-17.35118 17.35118-17.35118 9.570983 0 17.35118 7.780197 17.35118 17.35118v261.255189z m353.357863 222.291782h-85.814458c-12.598946 0-22.848381-10.250458-22.84838-22.848381s10.249435-22.847357 22.84838-22.847357h85.814458c12.598946 0 22.848381 10.249435 22.848381 22.847357s-10.250458 22.848381-22.848381 22.848381z m272.857435-239.774969c-9.658987 0-17.482163 7.832386-17.482163 17.482163 0 9.570983-7.788383 17.35118-17.35118 17.35118-9.570983 0-17.35118-7.780197-17.35118-17.35118V435.028954c0-9.570983 7.779174-17.35118 17.35118-17.35118 9.562796 0 17.35118 7.780197 17.35118 17.35118 0 9.650801 7.823176 17.482163 17.482163 17.482163 37.727253 0 69.605288 51.80897 69.605287 113.14492 0.001023 61.337997-31.878035 113.145943-69.605287 113.145943z" p-id="12841" fill="#d81e06"></path></svg>