<?xml version="1.0" standalone="no"?><!DOCTYPE svg PUBLIC "-//W3C//DTD SVG 1.1//EN" "http://www.w3.org/Graphics/SVG/1.1/DTD/svg11.dtd"><svg t="1498717774359" class="icon" style="" viewBox="0 0 1024 1024" version="1.1" xmlns="http://www.w3.org/2000/svg" p-id="4361" xmlns:xlink="http://www.w3.org/1999/xlink" width="16" height="16"><defs><style type="text/css"></style></defs><path d="M304.45037 283.192889c0-103.879111 84.517926-188.397037 188.397037-188.397037s188.397037 84.517926 188.397037 188.397037c0 102.968889-83.076741 186.785185-185.723259 188.245333-0.891259-0.037926-1.763556-0.265481-2.673778-0.265481-1.763556 0-3.489185 0.113778-5.233778 0.151704C386.161778 468.517926 304.45037 385.289481 304.45037 283.192889M492.847407 566.423704c156.16 0 283.211852-127.051852 283.211852-283.211852S649.007407 0 492.847407 0c-156.178963 0-283.211852 127.051852-283.211852 283.211852 0 91.382519 43.690667 172.562963 111.066074 224.369778C154.984296 580.532148 37.925926 755.427556 37.925926 959.184593 37.925926 985.372444 59.145481 1006.592 85.333333 1006.592S132.740741 985.372444 132.740741 959.184593c0-215.36237 159.478519-390.674963 356.257185-392.969481C490.287407 566.234074 491.538963 566.423704 492.847407 566.423704" p-id="4362" fill="#1296db"></path><path d="M725.731556 941.473185c-28.103111-15.473778-61.022815-28.558222-98.778074-39.215407-15.511704-3.849481-26.149926 0.493037-31.971556 13.065481-4.835556 12.591407 0 21.31437 14.52563 26.149926 12.572444 1.972148 45.511111 14.032593 98.778074 36.314074 12.572444 4.835556 21.788444 1.460148 27.610074-10.164148C740.731259 955.031704 737.336889 946.308741 725.731556 941.473185" p-id="4363" fill="#1296db"></path><path d="M722.830222 725.029926 597.902222 725.029926l0-20.328296 104.599704 0c11.605333-0.967111 17.901037-7.736889 18.868148-20.347259-0.967111-12.572444-7.262815-19.361185-18.868148-20.328296L597.902222 664.026074l0-8.722963c-0.986074-11.624296-8.229926-17.901037-21.788444-18.887111-13.577481 0.986074-20.840296 7.262815-21.807407 18.887111l0 8.722963-104.561778 0c-12.61037 0.967111-18.887111 7.755852-18.887111 20.328296 0 12.61037 6.276741 19.380148 18.887111 20.347259l104.561778 0 0 20.328296-130.711704 0c-12.61037 0.986074-19.399111 7.755852-20.366222 20.328296 0.967111 12.61037 7.755852 19.399111 20.366222 20.366222l45.018074 0c-3.868444 8.685037-0.967111 15.947852 8.722963 21.769481 3.849481 2.901333 12.572444 8.248889 26.149926 15.985778 19.342222 12.591407 30.966519 20.328296 34.853926 23.22963 10.638222 6.807704 20.347259 5.82163 29.051259-2.901333 5.802667-9.671111 4.361481-19.361185-4.361481-29.051259-9.690074-7.736889-24.689778-17.426963-45.037037-29.032296l78.449778 0c-2.901333 3.868444-5.328593 10.657185-7.262815 20.328296l0 1.441185c-0.986074 2.901333-1.934222 6.788741-2.901333 11.624296-5.82163 27.117037-12.117333 46.990222-18.887111 59.562667l-43.576889 0c0.967111-1.934222 1.460148-4.361481 1.460148-7.262815 0.948148-10.638222-8.722963-20.821333-29.051259-30.511407l-1.460148-1.460148c-19.380148-11.624296-31.497481-18.375111-36.314074-20.328296-9.690074-3.868444-17.938963-0.967111-24.689778 8.704-5.82163 11.624296-4.380444 19.873185 4.342519 24.708741 11.643259 5.82163 26.149926 14.52563 43.576889 26.149926l-56.64237 0c-10.676148 0.986074-16.478815 7.262815-17.426963 18.887111 0.948148 12.591407 6.750815 19.361185 17.426963 20.328296l114.763852 0c-24.234667 16.478815-62.976 31.004444-116.205037 43.576889-15.530667 1.972148-22.300444 9.671111-20.366222 23.248593 3.887407 12.572444 13.558519 17.445926 29.070222 14.52563 77.463704-17.445926 132.664889-44.525037 165.603556-81.351111l132.190815 0c9.671111-0.967111 14.999704-7.736889 15.985778-20.328296-0.986074-11.624296-6.314667-17.901037-15.985778-18.887111l-117.665185 0c10.638222-24.215704 17.901037-49.398519 21.788444-75.548444 1.934222-7.736889 0.493037-13.539556-4.342519-17.408l60.984889 0c7.755852-0.967111 4.361481 9.671111-10.164148 31.93363-6.769778 11.624296-4.854519 21.31437 5.82163 29.051259 11.605333 5.82163 21.276444 3.413333 29.051259-7.262815 17.426963-24.196741 28.084148-47.93837 31.952593-71.168C751.388444 731.818667 743.158519 724.081778 722.830222 725.029926" p-id="4364" fill="#1296db"></path><path d="M947.977481 828.188444 894.236444 828.188444 894.236444 774.428444C893.25037 759.902815 885.987556 752.165926 872.448 751.179852c-14.52563 0.986074-22.300444 8.722963-23.248593 23.248593l0 53.76L795.45837 828.188444c-13.577481 0.967111-20.859259 8.229926-21.788444 21.769481 0.929185 14.544593 8.210963 22.300444 21.788444 23.248593l53.741037 0 0 53.76c0.948148 12.591407 8.722963 18.868148 23.248593 18.868148s21.788444-6.276741 21.788444-18.868148L894.236444 873.206519l53.741037 0c14.544593-0.948148 22.281481-8.704 23.248593-23.248593C970.258963 836.41837 962.522074 829.155556 947.977481 828.188444" p-id="4365" fill="#1296db"></path></svg>